<?xml version="1.0" encoding="utf-8"?>
<!-- Generator: Adobe Illustrator 21.1.0, SVG Export Plug-In . SVG Version: 6.00 Build 0)  -->
<svg version="1.1" xmlns="http://www.w3.org/2000/svg" xmlns:xlink="http://www.w3.org/1999/xlink" x="0px" y="0px"
	 viewBox="0 0 227.5 400" style="enable-background:new 0 0 227.5 400;" xml:space="preserve">
<style type="text/css">
	.st0{display:none;}
	.st1{display:inline;}
	.st2{display:inline;fill:#231F20;}
	.st3{display:inline;fill:#FFFFFF;}
	.st4{display:inline;fill:none;}
	.st5{fill:#231F20;}
	.st6{font-family:'Philosopher-Bold';}
	.st7{font-size:120.2171px;}
</style>
<g id="Photoshop_Sketch" class="st0">
	<g class="st1">
		<g>
			<path d="M599.7-186.6c0,0.6,0,1.1,0,1.6c0,15.8,0,31.7,0,47.5c0,2.5-1.4,4.2-3.9,4.5c-1.3,0.1-2.7,0-4.1-0.2
				c-0.4,0-0.8-0.4-1.1-0.8c-8.4-11.2-16.8-22.4-25.2-33.6c-0.1-0.1-0.2-0.3-0.4-0.8c1.3,0,2.4,0,3.5,0c3.6,0.1,7-0.8,10.4-2.1
				c8.3-3.2,15-8.4,20.2-15.6c0.1-0.1,0.2-0.3,0.3-0.4C599.4-186.5,599.5-186.5,599.7-186.6z"/>
			<path d="M562-129.1c1.2-1.6,2.5-3.2,3.6-4.8c2.6-4.2,4-8.8,4.4-13.7c0.3-3,0.3-6.1,0.5-9.2c0.9,1.2,1.9,2.5,2.9,3.8
				c4.9,6.6,9.8,13.2,14.8,19.7c1.5,1.9,1.7,4,1.1,6.2c-0.6,2.1-3.6,3.9-5.8,3.4c-7-1.7-13.9-3.4-20.9-5.1
				C562.3-128.9,562.1-129,562-129.1z"/>
			<path d="M753.2-127.1c-2,0-3.9,0-5.9,0c0-0.5,0-0.8,0-1.2c0-3.9,0-7.8,0-11.8c0-1.3-0.2-2.7-0.5-4c-0.3-1.3-1.3-2.3-2.7-2.4
				c-1.5-0.2-2.9,0.3-4,1.4c-0.1,0.2-0.2,0.5-0.1,0.7c0.2,1.3,0.5,2.7,0.5,4c0.1,4.2,0,8.4,0,12.6c0,0.2,0,0.4-0.1,0.6
				c-1.9,0-3.8,0-5.7,0c0-0.4,0-0.7,0-1.1c0-4,0-7.9,0-11.9c0-1.3-0.2-2.5-0.5-3.8c-0.3-1.4-1.2-2.4-2.6-2.7
				c-1.5-0.3-2.7,0.4-3.8,1.5c-0.2,0.2-0.2,0.6-0.2,0.9c0,1.2,0.2,2.3,0.2,3.5c0,4.1,0,8.2,0,12.4c0,0.4,0,0.8,0,1.3
				c-2,0-3.8,0-5.9,0c0-0.4,0-0.8,0-1.1c0-4.6,0-9.1,0-13.7c0-0.9,0-1.8-0.2-2.6c-0.3-1.7-0.9-2.2-2.6-2.4c-0.2,0-0.5-0.1-0.7-0.1
				c0-0.4,0-0.7,0-1.1c2,0,3.9-0.1,5.9,0.1c0.9,0.1,1.7,0.8,2.8,1.4c3.9-2.9,7.9-2.7,12,0.5c2-2.1,4.5-2.7,7.3-2.4
				c4.2,0.3,6.5,2.6,6.9,6.9c0.1,1.4,0.1,2.9,0.1,4.3c0,3.1,0,6.2,0,9.2C753.2-127.9,753.2-127.5,753.2-127.1z"/>
			<path d="M615.9-155.8c0-0.4,0-0.7,0-1.1c2.3,0,4.6-0.1,6.8,0c1.5,0.1,2.1,1.3,2.3,2.7c0.2,0.9,0.3,1.7,0.3,2.6
				c0,7.9,0,15.7,0,23.6c0,0.2,0,0.5-0.1,0.8c-1.2,0-2.3,0-3.4,0c-0.3,0-0.6-0.3-0.8-0.6c-0.4-0.5-0.8-1-1.2-1.5
				c-0.2,0.2-0.3,0.2-0.4,0.3c-2,2.4-4.6,2.5-7.4,1.9c-3.5-0.7-5.4-3.1-6.4-6.3c-1.1-3.4-1-6.8,0.4-10.2c2.3-5.6,8.6-6.5,12.7-4.5
				c0.2,0.1,0.3,0.2,0.5,0.2c0-1.9,0.2-3.8,0-5.6c-0.2-1.7-1-2.3-2.7-2.5C616.4-155.7,616.2-155.7,615.9-155.8z M619.5-138.3
				c0-2.1,0-4.2,0-6.2c0-0.4-0.1-0.8-0.3-1.1c-2.2-2.2-5.9-1.4-7.1,1.4c-0.2,0.6-0.4,1.2-0.6,1.8c-0.6,2.7-0.6,5.5-0.2,8.2
				c0.2,1.3,0.6,2.6,1.2,3.8c0.8,1.5,2.3,2,3.9,1.6c1.6-0.4,3.1-2.1,3.1-3.6C619.5-134.3,619.5-136.3,619.5-138.3z"/>
			<path d="M640.7-126.6c-6.4,0-10.9-4.5-10.9-11.1c0-6.5,4.4-11.1,10.8-11.1c6.4,0,10.9,4.5,10.9,11
				C651.6-131.2,647.2-126.7,640.7-126.6z M645.4-137.8c0-2.1-0.2-4.3-1.2-6.4c-0.7-1.5-1.8-2.6-3.6-2.6c-1.8,0-3,1-3.6,2.6
				c-1.7,4.3-1.7,8.7,0,13c0.5,1.3,1.4,2.2,2.8,2.5c1.9,0.4,3.6-0.6,4.5-2.7C645.2-133.4,645.4-135.5,645.4-137.8z"/>
			<path d="M710.2-139.5c-0.3-1.7-0.4-3.2-0.8-4.7c-0.4-1.6-1.8-2.7-3.5-2.7c-1.7,0-3.4,0.4-4.2,2.2c-0.3,0.6-0.5,1.2-0.7,1.8
				c-0.7,0-1.4,0-2.2,0c-0.7-2.8,0.6-5,3.3-5.6c2.5-0.6,5-0.6,7.5,0c3.6,0.9,5.9,3.5,6,7.1c0.2,4.7,0,9.3,0,14.2c-1.1,0-2.3,0-3.4,0
				c-0.2,0-0.5-0.3-0.7-0.6c-0.4-0.5-0.8-1-1.2-1.5c-2.8,3.2-6.1,3-9.5,1.9c-2.5-0.8-3.8-3-3.8-5.5c0-2.8,1.3-4.6,3.9-5.6
				c2.1-0.8,4.3-1,6.5-1.1C708.2-139.5,709-139.5,710.2-139.5z M710-137.5c-1,0.1-1.8,0.1-2.5,0.2c-3.4,0.5-4.8,2.6-4.2,5.9
				c0.3,1.4,1.1,2.3,2.3,2.6c1.8,0.3,4.2-1.3,4.4-3.1C710.1-133.8,710-135.6,710-137.5z"/>
			<path d="M568.2-125.1c2.9,0.7,5.6,1.4,8.2,2c3.1,0.8,6.2,1.5,9.3,2.2c1.2,0.3,1.9,1,2.3,2c1,2.2,1.2,4.5,0.1,6.8
				c-0.3,0.5-0.7,1.1-1.2,1.4c-3.8,2.4-7.7,4.8-11.6,7.1c-0.1,0.1-0.2,0.1-0.3,0.1C575.1-111.3,572.9-118.4,568.2-125.1z"/>
			<path d="M763.6-136.9c-0.1,2,0.1,3.8,0.8,5.5c1.4,3,5.3,3.8,8.1,1.5c0.9-0.7,1.7-1.6,2.6-2.4c0.4,0.3,0.8,0.6,1.2,0.9
				c-2.8,4.3-6,5.3-10.6,4.6c-4.1-0.7-7.2-3.9-8-8.1c-0.5-2.4-0.4-4.8,0.3-7.1c1.1-3.8,4.2-6.3,8.2-6.7c4.6-0.4,8.5,1.5,10.3,5.1
				c0.9,1.7,1.1,4.4,0.6,6.7C772.7-136.9,768.2-136.9,763.6-136.9z M771.3-139c0-2.1-0.1-4-0.9-5.9c-0.6-1.2-1.5-1.9-2.9-2
				c-1.3,0-2.2,0.7-2.8,1.8c-1.1,1.9-1.1,3.9-1.1,6.1C766.2-139,768.7-139,771.3-139z"/>
			<path d="M655.3-133.8c0.5,0,0.9,0,1.4,0c0.2,0.7,0.5,1.3,0.8,2c0.9,1.9,2.3,3,4.4,3.1c1.1,0.1,2.2,0,3.3-0.3c1.2-0.2,2-1,2.1-2.3
				c0.2-1.3-0.4-2.2-1.5-2.8c-1.2-0.7-2.5-1.2-3.7-1.9c-1.6-0.9-3.4-1.6-4.8-2.7c-3.3-2.5-2.9-7,0.8-9c1.5-0.9,3.2-1.2,5-1.2
				c2,0,4.1,0,6,0.7c1.8,0.6,2.8,1.8,2.9,3.7c0.1,0.9,0.1,1.7,0.1,2.7c-0.5,0-1,0-1.5,0c-0.3-0.7-0.5-1.6-0.9-2.3
				c-1.3-2.5-4.5-3.6-7.1-2.5c-2.1,0.8-2.5,3.5-0.7,4.9c0.8,0.6,1.9,1.1,2.8,1.6c2,1,4,1.8,5.9,2.9c2.4,1.5,3.1,4.2,2,6.7
				c-0.7,1.6-2.1,2.4-3.6,3c-3.4,1.1-6.9,1.1-10.4,0.1c-1.9-0.6-3-1.8-3.1-3.9C655.3-132.1,655.3-132.9,655.3-133.8z"/>
			<path d="M693.3-141.6c-0.6,0-1.1,0-1.3,0c-0.7-1.3-1.2-2.5-2-3.4c-1.3-1.7-4.4-2.2-6.4-1.4c-2.1,0.9-2.4,3.6-0.6,4.9
				c1.1,0.8,2.4,1.3,3.6,1.9c1.7,0.8,3.4,1.5,5,2.6c3.6,2.4,3.3,7.2-0.5,9.2c-1.1,0.6-2.3,0.9-3.5,1.1c-2.7,0.4-5.5,0.4-8.2-0.5
				c-1.8-0.6-2.8-1.8-2.9-3.7c0-0.9,0-1.7,0-2.6c1.3-0.2,1.3-0.2,1.7,1c1.2,3.6,5.3,5.3,8.7,3.5c1.8-1,2.1-3.4,0.4-4.5
				c-1.3-0.9-2.9-1.5-4.3-2.3c-1.7-0.9-3.5-1.7-5-3c-2.3-1.9-2.4-5.4-0.4-7.5c1-1,2.3-1.7,3.6-2c3-0.7,6-0.6,9,0.4
				c1.7,0.6,2.7,1.6,2.8,3.5C693.2-143.6,693.2-142.6,693.3-141.6z"/>
			<path d="M788.4-127.1c-1.9,0-3.8,0-5.7,0c0-0.4-0.1-0.8-0.1-1.1c0-4.5,0-9,0-13.5c0-1,0-1.9-0.2-2.9c-0.2-1.6-1-2.2-2.5-2.4
				c-0.2,0-0.5-0.1-0.8-0.1c0-0.4,0-0.8,0-1.2c1.9,0,3.8-0.1,5.7,0.1c0.9,0.1,1.8,0.8,2.8,1.3c2.1-1.6,4.6-2.4,7.5-1.6
				c1.2,0.4,2.1,1.2,2.7,2.6c-0.7,0.6-1.5,1.1-2.2,1.7c-2.2-1.9-4.1-2.2-6.3-1c-0.7,0.4-1,0.8-0.9,1.7
				C788.4-138.1,788.4-132.7,788.4-127.1z"/>
			<path d="M599.7-96.1c-5-5.4-11.4-7.5-18.3-8.2c0.1-0.1,0.3-0.3,0.6-0.4c2.2-1.3,4.4-2.6,6.5-4c1.3-0.9,2.5-1.2,4-0.8
				c2.5,0.5,4.8,1.3,6.3,3.5c0.4,0.6,0.9,1.3,0.9,1.9C599.8-101.5,599.7-98.8,599.7-96.1z"/>
			<path d="M602.1-98.9c0-1.6-0.1-3.2,0-4.7c0.1-1.4,1-2.3,2.2-2.9c1.5-0.8,3.5-0.3,4.5,1c0.6,0.7,1.1,1.4,1.8,2.3
				C606.8-103.6,604.7-101,602.1-98.9z"/>
			<path d="M599.7-132.2c0,3.5,0,6.7,0,10.2c-2.2-2.9-4.2-5.6-6.4-8.5C595.6-130.4,597.8-130.4,599.7-132.2z"/>
			<path d="M588.1-122.7c2.3-1.4,3.9-3,3.5-6.1c2.2,2.9,4.2,5.6,6.4,8.5C594.6-121.1,591.5-121.8,588.1-122.7z"/>
			<path d="M590.6-112.9c0.5-2.4,0.5-4.6-0.6-6.9c2.8,0.7,5.5,1.3,8.4,2.1C595.7-116,593.2-114.5,590.6-112.9z"/>
			<path d="M608.2-124.8c-2.2,1.4-4.2,2.7-6.3,4c0-3,0-5.9,0-9c0.8,1.2,1.5,2.3,2.3,3.4C605.2-125.2,606.6-125.2,608.2-124.8z"/>
			<path d="M599.7-108c-1.7-2.5-4.1-3.2-7-3.4c2.4-1.5,4.6-2.9,7-4.3C599.7-113.1,599.7-110.6,599.7-108z"/>
			<path d="M610.8-116.9c-2.5-0.6-4.9-1.2-7.4-1.9c2.2-1.5,4.4-3,6.7-4.6c-0.4,2.3-0.9,4.5,0.9,6.2
				C610.9-117.1,610.9-117,610.8-116.9z"/>
			<path d="M604-116.3c2.5,0.6,4.9,1.2,7.6,1.9c-2.3,1-3,2.6-3,5.1c-1.7-2.3-3.2-4.5-4.8-6.6C603.8-116,603.9-116.1,604-116.3z"/>
			<path d="M606.4-108.6c-1.7,0-3.1,0.2-4.2,1.5c-0.5-2.4-0.3-4.7,0-7.1C603.4-112.5,604.8-110.6,606.4-108.6z"/>
		</g>
	</g>
</g>
<g id="Circles" class="st0">
	<circle class="st2" cx="611.4" cy="-132.7" r="45"/>
	<circle class="st2" cx="611.4" cy="-132.7" r="40"/>
	<circle class="st2" cx="611.4" cy="-132.7" r="35"/>
	<circle class="st2" cx="611.4" cy="-132.7" r="30"/>
	<circle class="st2" cx="611.4" cy="-132.7" r="25"/>
	<circle class="st2" cx="611.4" cy="-132.7" r="17.5"/>
	<circle class="st2" cx="611.4" cy="-132.7" r="15"/>
	<circle class="st2" cx="611.4" cy="-132.7" r="12.5"/>
	<circle class="st2" cx="611.5" cy="-132.7" r="10"/>
	<circle class="st2" cx="611.4" cy="-132.7" r="50"/>
	<circle class="st2" cx="611.4" cy="-132.7" r="55"/>
	<circle class="st2" cx="611.4" cy="-132.7" r="60"/>
</g>
<g id="Spokes" class="st0">
	<rect x="609.9" y="-197.7" class="st3" width="3" height="130"/>
	
		<rect x="609.9" y="-182.7" transform="matrix(0.1736 -0.9848 0.9848 0.1736 635.9394 492.5133)" class="st3" width="3" height="100"/>
	
		<rect x="609.9" y="-182.7" transform="matrix(-0.6428 -0.766 0.766 -0.6428 1106.1204 250.4223)" class="st3" width="3" height="100"/>
	
		<rect x="609.9" y="-192.7" transform="matrix(0.766 -0.6428 0.6428 0.766 228.3397 361.9882)" class="st3" width="3" height="120"/>
</g>
<g id="Bisecting_Guides" class="st0">
	<line class="st4" x1="593.6" y1="-186.7" x2="631.2" y2="-83.4"/>
	<line class="st4" x1="575.3" y1="-155.6" x2="654.7" y2="-107.7"/>
	<line class="st4" x1="563.2" y1="-119.7" x2="659.7" y2="-145.6"/>
	<line class="st4" x1="590.3" y1="-87.4" x2="632.6" y2="-178"/>
	<polyline class="st4" points="577.3,-175.8 593.6,-186.7 609.9,-197.7 	"/>
	<polyline class="st4" points="578.2,-170 575.3,-155.6 572.3,-141.1 	"/>
</g>
<g id="Outer_Web" class="st0">
	<path class="st4" d="M576.7-137.3L576.7-137.3c6.6,6.9,9.2,16.7,6.9,25.9v0"/>
	<path class="st4" d="M589.5-112.3L589.5-112.3c8.1-1.4,16.3,2.4,20.5,9.6l0,0"/>
	<path class="st2" d="M612.9-107.7L612.9-107.7c2.5-4.8,8.3-6.9,13.4-4.9l0,0"/>
	<path class="st4" d="M572.3-141.1L572.3-141.1c6-6.5,8.6-15.6,6.8-24.3l-0.9-4.6"/>
	<path class="st4" d="M577.3-175.8L577.3-175.8c12.1-2.9,22.9-9.8,30.7-19.5l2-2.4"/>
</g>
<g id="Inner_Web" class="st0">
	<path class="st2" d="M612.9-115.2L612.9-115.2c1.6-3.2,5.3-4.6,8.6-3.2l0,0"/>
	<path class="st2" d="M612.8-119.2L612.8-119.2c0.9-2.6,3.9-3.7,6.3-2.3l0,0"/>
	<path class="st2" d="M623.8-120.3L623.8-120.3c-0.9-3.4,1.2-6.9,4.6-7.9l0,0"/>
	<path class="st2" d="M621.2-123.2L621.2-123.2c-1-2.6,0.6-5.4,3.3-5.8l0,0"/>
	<path class="st2" d="M628.9-131.1L628.9-131.1c-3.3-2.9-4.5-7.5-3.1-11.6v0"/>
	<path class="st2" d="M625-131.7L625-131.7c-2.8-1.9-3.7-5.6-2.3-8.6l0,0"/>
	<path class="st2" d="M623.8-145L623.8-145c-4.3,0.6-8.6-1.4-10.9-5.1l0,0"/>
	<path class="st2" d="M620.9-142.4L620.9-142.4c-3.3,0.9-6.7-0.7-8.1-3.8l0,0"/>
	<path class="st2" d="M609.9-150.1L609.9-150.1c-1.5,3.2-5.3,4.6-8.6,3.1l0,0"/>
	<path class="st2" d="M599.1-145.1L599.1-145.1c0.9,3.4-1.2,6.9-4.6,7.9l0,0"/>
	<path class="st2" d="M601.7-142.2L601.7-142.2c1,2.6-0.6,5.4-3.3,5.8l0,0"/>
	<path class="st2" d="M594-134.2L594-134.2c3.3,2.9,4.5,7.5,3.1,11.6v0"/>
	<path class="st2" d="M597.9-133.7L597.9-133.7c2.8,1.9,3.7,5.6,2.3,8.6l0,0"/>
	<path class="st2" d="M599.1-120.3L599.1-120.3c4.3-0.6,8.6,1.4,10.9,5.1l0,0"/>
	<path class="st2" d="M602-123L602-123c3.3-0.9,6.7,0.7,8.1,3.8l0,0"/>
	<path class="st2" d="M610.1-146.2L610.1-146.2c-0.9,2.6-3.9,3.7-6.3,2.3l0,0"/>
</g>
<g id="Final_Skeleton" class="st0">
	<circle class="st2" cx="616.4" cy="-140.7" r="45"/>
	<circle class="st2" cx="616.4" cy="-140.7" r="40"/>
	<circle class="st2" cx="616.4" cy="-140.7" r="35"/>
	<circle class="st2" cx="616.4" cy="-140.7" r="30"/>
	<circle class="st2" cx="616.4" cy="-140.7" r="25"/>
	<circle class="st2" cx="616.4" cy="-140.7" r="17.5"/>
	<circle class="st2" cx="616.4" cy="-140.7" r="15"/>
	<circle class="st2" cx="616.4" cy="-140.7" r="12.5"/>
	<circle class="st2" cx="616.5" cy="-140.7" r="10"/>
	<circle class="st2" cx="616.4" cy="-140.7" r="50"/>
	<circle class="st2" cx="616.4" cy="-140.7" r="55"/>
	<circle class="st2" cx="616.4" cy="-140.7" r="60"/>
	<rect x="614.9" y="-205.7" class="st3" width="3" height="130"/>
	
		<rect x="614.9" y="-190.7" transform="matrix(0.1736 -0.9848 0.9848 0.1736 647.9496 490.8266)" class="st3" width="3" height="100"/>
	
		<rect x="614.9" y="-190.7" transform="matrix(-0.6428 -0.766 0.766 -0.6428 1120.4626 241.1102)" class="st3" width="3" height="100"/>
	
		<rect x="614.9" y="-200.7" transform="matrix(0.766 -0.6428 0.6428 0.766 234.6518 363.3305)" class="st3" width="3" height="120"/>
	<line class="st4" x1="598.6" y1="-194.7" x2="636.2" y2="-91.4"/>
	<line class="st4" x1="580.3" y1="-163.6" x2="659.7" y2="-115.7"/>
	<line class="st4" x1="568.2" y1="-127.7" x2="664.7" y2="-153.6"/>
	<line class="st4" x1="595.3" y1="-95.4" x2="637.6" y2="-186"/>
	<polyline class="st4" points="582.3,-183.8 598.6,-194.7 614.9,-205.7 	"/>
	<polyline class="st4" points="583.2,-178 580.3,-163.6 577.3,-149.1 	"/>
	<path class="st4" d="M581.7-145.3L581.7-145.3c6.6,6.9,9.2,16.7,6.9,25.9v0"/>
	<path class="st4" d="M594.5-120.3L594.5-120.3c8.1-1.4,16.3,2.4,20.5,9.6l0,0"/>
	<path class="st2" d="M617.9-115.7L617.9-115.7c2.5-4.8,8.3-6.9,13.4-4.9l0,0"/>
	<path class="st4" d="M577.3-149.1L577.3-149.1c6-6.5,8.6-15.6,6.8-24.3l-0.9-4.6"/>
	<path class="st4" d="M582.3-183.8L582.3-183.8c12.1-2.9,22.9-9.8,30.7-19.5l2-2.4"/>
	<path class="st2" d="M617.9-123.2L617.9-123.2c1.6-3.2,5.3-4.6,8.6-3.2l0,0"/>
	<path class="st2" d="M617.8-127.2L617.8-127.2c0.9-2.6,3.9-3.7,6.3-2.3l0,0"/>
	<path class="st2" d="M628.8-128.3L628.8-128.3c-0.9-3.4,1.2-6.9,4.6-7.9l0,0"/>
	<path class="st2" d="M626.2-131.2L626.2-131.2c-1-2.6,0.6-5.4,3.3-5.8l0,0"/>
	<path class="st2" d="M633.9-139.1L633.9-139.1c-3.3-2.9-4.5-7.5-3.1-11.6v0"/>
	<path class="st2" d="M630-139.7L630-139.7c-2.8-1.9-3.7-5.6-2.3-8.6l0,0"/>
	<path class="st2" d="M628.8-153L628.8-153c-4.3,0.6-8.6-1.4-10.9-5.1l0,0"/>
	<path class="st2" d="M625.9-150.4L625.9-150.4c-3.3,0.9-6.7-0.7-8.1-3.8l0,0"/>
	<path class="st2" d="M614.9-158.1L614.9-158.1c-1.5,3.2-5.3,4.6-8.6,3.1l0,0"/>
	<path class="st2" d="M604.1-153.1L604.1-153.1c0.9,3.4-1.2,6.9-4.6,7.9l0,0"/>
	<path class="st2" d="M606.7-150.2L606.7-150.2c1,2.6-0.6,5.4-3.3,5.8l0,0"/>
	<path class="st2" d="M599-142.2L599-142.2c3.3,2.9,4.5,7.5,3.1,11.6l0,0"/>
	<path class="st2" d="M602.9-141.7L602.9-141.7c2.8,1.9,3.7,5.6,2.3,8.6l0,0"/>
	<path class="st2" d="M604.1-128.3L604.1-128.3c4.3-0.6,8.6,1.4,10.9,5.1l0,0"/>
	<path class="st2" d="M607-131L607-131c3.3-0.9,6.7,0.7,8.1,3.8l0,0"/>
	<path class="st2" d="M615.1-154.2L615.1-154.2c-0.9,2.6-3.9,3.7-6.3,2.3l0,0"/>
</g>
<g id="Final_Shape">
	<path class="st5" d="M93.6,254.7c0,0,0,0,0,0.1h0L93.6,254.7z"/>
	<path class="st5" d="M171.2,347.2C171.1,347.2,171.1,347.3,171.2,347.2l-0.1,0.3v-0.3C171.1,347.3,171.1,347.2,171.2,347.2z"/>
	<path class="st5" d="M93.6,254.7c0,0,0,0,0,0.1h0L93.6,254.7z"/>
	<path class="st5" d="M171.2,347.2C171.1,347.2,171.1,347.3,171.2,347.2l-0.1,0.3v-0.3C171.1,347.3,171.1,347.2,171.2,347.2z"/>
	<path class="st5" d="M220.6,277.2l-3.3-0.6l-10.4-1.8l-27.7-4.9l21.5-18.1l8.1-6.8l2.6-2.2c-0.6,1.3-1.1,2.8-1.4,4.2
		c-2.4,9.7,0.3,20,7.3,27.3c0,0,0,0,0,0C218.4,275.4,219.4,276.3,220.6,277.2z"/>
	<path class="st5" d="M93.6,254.7c0,0,0,0,0,0.1h0L93.6,254.7z"/>
	<path class="st5" d="M171.2,347.2C171.1,347.2,171.1,347.3,171.2,347.2l-0.1,0.3v-0.3C171.1,347.3,171.1,347.2,171.2,347.2z"/>
	<path class="st5" d="M93.6,254.7c0,0,0,0,0,0.1h0L93.6,254.7z"/>
	<path class="st5" d="M171.2,347.2C171.1,347.2,171.1,347.3,171.2,347.2l-0.1,0.3v-0.3C171.1,347.3,171.1,347.2,171.2,347.2z"/>
	<path class="st5" d="M93.6,254.7c0,0,0,0,0,0.1h0L93.6,254.7z"/>
	<path class="st5" d="M171.2,347.2C171.1,347.2,171.1,347.3,171.2,347.2l-0.1,0.3v-0.3C171.1,347.3,171.1,347.2,171.2,347.2z"/>
	<path class="st5" d="M93.6,254.7c0,0,0,0,0,0.1h0L93.6,254.7z"/>
	<path class="st5" d="M171.2,347.2C171.1,347.2,171.1,347.3,171.2,347.2l-0.1,0.3v-0.3C171.1,347.3,171.1,347.2,171.2,347.2z"/>
	<path class="st5" d="M93.6,254.7c0,0,0,0,0,0.1h0L93.6,254.7z"/>
	<path class="st5" d="M171.2,347.2C171.1,347.2,171.1,347.3,171.2,347.2l-0.1,0.3v-0.3C171.1,347.3,171.1,347.2,171.2,347.2z"/>
	<path class="st5" d="M158.4,218.4v38l-15.6-18.6l-6.8-8.1l-2-2.4c1.2,0.6,2.5,1,3.7,1.3c7,1.7,14.5-1,18.8-6.8
		C157.2,220.7,157.9,219.6,158.4,218.4z"/>
	<path class="st5" d="M93.6,254.7c0,0,0,0,0,0.1h0L93.6,254.7z"/>
	<path class="st5" d="M171.2,347.2C171.1,347.2,171.1,347.3,171.2,347.2l-0.1,0.3v-0.3C171.1,347.3,171.1,347.2,171.2,347.2z"/>
	<path class="st5" d="M150.3,277.7l-21.5,18l-8.2,6.9l-2.6,2.1c0.5-1.3,1-2.8,1.3-4.2c2.4-9.7-0.4-20.1-7.3-27.3
		c-1-1.1-2.1-2-3.2-2.9l3.3,0.6l10.4,1.9L150.3,277.7z"/>
	<path class="st5" d="M203.3,233.2l-2.6,2.1l-8.1,6.8l-21.5,18.1v-42.1c0.7,1.3,1.5,2.6,2.4,3.7c5.9,8.1,15.5,12.6,25.6,12
		C200.4,233.7,201.9,233.5,203.3,233.2z"/>
	<path class="st5" d="M218.1,289.6c-1.2,0.3-2.4,0.8-3.5,1.3c-6.5,3.2-10.4,10.1-10,17.3c0,1.3,0.3,2.5,0.6,3.8l-2-2.3l-6.9-8.2
		L180.7,283l23.9,4.2l10.5,1.9L218.1,289.6z"/>
	<path class="st5" d="M158.4,347.2V400c-5.8-9.9-13.5-18.3-22.4-24.9c0,0,0,0,0,0c-9.1-6.8-19.5-11.6-30.5-14.2c0,0,0,0,0,0
		c-10.7-2.5-22-3-33.3-1.1l16.1-13.6l24.3-20.3v0c6-0.8,12-0.5,17.6,0.9c5.9,1.4,11.4,4,16.2,7.6
		C151.1,337.7,155.2,342.1,158.4,347.2z"/>
	<path class="st5" d="M93.5,254.8c0-0.1,0-0.1,0-0.1L93.5,254.8l-31.2-5.5l-20.8-3.7L20.8,242L0,238.3c17-18.4,27.3-41.5,30.1-65.8
		c1.2-10.4,1.1-20.9-0.6-31.5c-0.3-1.7-0.6-3.4-0.9-5.1l-4-19.3l13.6,16.1l13.6,16.2L65.2,165l13.6,16.2l13.5,16.1l20.3,24.2v0
		C116.3,236,107.8,250.7,93.5,254.8z"/>
	<path class="st5" d="M158.4,0v200.4c-6.6,13.3-22.5,19.1-36.1,13.1L102,189.2l-13.6-16.1l-13.6-16.2l-13.5-16.1l-13.6-16.2
		l-13.6-16.1L20.7,92.3c33.4-8,64.5-23.2,91.2-44.1c9.9-7.8,19.3-16.5,27.9-25.9c3.6-3.9,7-7.9,10.3-12L158.4,0z"/>
	<path class="st5" d="M93.6,254.7c0,0,0,0,0,0.1h0L93.6,254.7z"/>
	<path class="st5" d="M227.5,358.4c-21.3-8.7-45.7,0.2-56.4,20.5v-31.4l0.1-0.3c0,0,0,0,0,0c6.5-13.3,22.3-19.2,35.8-13.1h0
		c0,0,0,0,0,0L227.5,358.4z"/>
	<path class="st5" d="M195.5,320.3c-1.2-0.6-2.4-1.1-3.7-1.3c-7.1-1.7-14.5,1.1-18.8,6.9c-0.8,1-1.4,2.1-1.9,3.4v-38l15.6,18.6
		l6.9,8.2L195.5,320.3z"/>
	<path class="st5" d="M158.4,287.3v42.2c-0.7-1.3-1.5-2.6-2.4-3.7c-5.9-8.1-15.6-12.7-25.6-12c-1.4,0.1-2.9,0.3-4.3,0.6l2.6-2.2
		l8.2-6.8L158.4,287.3z"/>
	<path class="st5" d="M148.7,264.5l-23.9-4.2l-10.4-1.8l-2.9-0.5c1.3-0.3,2.4-0.8,3.6-1.4c6.4-3.2,10.4-10.1,9.9-17.2
		c-0.1-1.3-0.3-2.7-0.7-4l2.1,2.4l6.8,8.1L148.7,264.5z"/>
	<path class="st5" d="M104.4,316.1L104.4,316.1l-24.3,20.4L64,350.1l-16.1,13.6l0,0c2.8-11.5,3.8-23.3,3.1-34.8c0,0,0-0.1,0-0.1
		c-0.9-15.8-5.1-31.3-12.1-45.5c-5.1-10.4-11.9-20.1-20.2-28.8v0l20.8,3.7l20.8,3.7l31.2,5.5c4.5,4,8.1,8.8,10.7,14.1v0
		c2.6,5.3,4.2,11.1,4.5,17c0,0,0,0.1,0,0.2C107,304.4,106.3,310.3,104.4,316.1z"/>
</g>
<g id="Text" class="st0">
	<text transform="matrix(1 0 0 1 -132.5433 488.4378)" class="st1 st6 st7">dossamer</text>
</g>
<g id="Square" class="st0">
	<path class="st2" d="M93.6,254.7c0,0,0,0,0,0.1h0L93.6,254.7z"/>
	<path class="st2" d="M171.2,347.2C171.1,347.2,171.1,347.3,171.2,347.2l-0.1,0.3v-0.3C171.1,347.3,171.1,347.2,171.2,347.2z"/>
	<path class="st2" d="M93.6,254.7c0,0,0,0,0,0.1h0L93.6,254.7z"/>
	<path class="st2" d="M171.2,347.2C171.1,347.2,171.1,347.3,171.2,347.2l-0.1,0.3v-0.3C171.1,347.3,171.1,347.2,171.2,347.2z"/>
	<path class="st2" d="M220.6,277.2l-3.3-0.6l-10.4-1.8l-27.7-4.9l21.5-18.1l8.1-6.8l2.6-2.2c-0.6,1.3-1.1,2.8-1.4,4.2
		c-2.4,9.7,0.3,20,7.3,27.3c0,0,0,0,0,0C218.4,275.4,219.4,276.3,220.6,277.2z"/>
	<path class="st2" d="M93.6,254.7c0,0,0,0,0,0.1h0L93.6,254.7z"/>
	<path class="st2" d="M171.2,347.2C171.1,347.2,171.1,347.3,171.2,347.2l-0.1,0.3v-0.3C171.1,347.3,171.1,347.2,171.2,347.2z"/>
	<path class="st2" d="M93.6,254.7c0,0,0,0,0,0.1h0L93.6,254.7z"/>
	<path class="st2" d="M171.2,347.2C171.1,347.2,171.1,347.3,171.2,347.2l-0.1,0.3v-0.3C171.1,347.3,171.1,347.2,171.2,347.2z"/>
	<path class="st2" d="M93.6,254.7c0,0,0,0,0,0.1h0L93.6,254.7z"/>
	<path class="st2" d="M171.2,347.2C171.1,347.2,171.1,347.3,171.2,347.2l-0.1,0.3v-0.3C171.1,347.3,171.1,347.2,171.2,347.2z"/>
	<path class="st2" d="M93.6,254.7c0,0,0,0,0,0.1h0L93.6,254.7z"/>
	<path class="st2" d="M171.2,347.2C171.1,347.2,171.1,347.3,171.2,347.2l-0.1,0.3v-0.3C171.1,347.3,171.1,347.2,171.2,347.2z"/>
	<path class="st2" d="M93.6,254.7c0,0,0,0,0,0.1h0L93.6,254.7z"/>
	<path class="st2" d="M171.2,347.2C171.1,347.2,171.1,347.3,171.2,347.2l-0.1,0.3v-0.3C171.1,347.3,171.1,347.2,171.2,347.2z"/>
	<path class="st2" d="M158.4,218.4v38l-15.6-18.6l-6.8-8.1l-2-2.4c1.2,0.6,2.5,1,3.7,1.3c7,1.7,14.5-1,18.8-6.8
		C157.2,220.7,157.9,219.6,158.4,218.4z"/>
	<path class="st2" d="M93.6,254.7c0,0,0,0,0,0.1h0L93.6,254.7z"/>
	<path class="st2" d="M171.2,347.2C171.1,347.2,171.1,347.3,171.2,347.2l-0.1,0.3v-0.3C171.1,347.3,171.1,347.2,171.2,347.2z"/>
	<path class="st2" d="M150.3,277.7l-21.5,18l-8.2,6.9l-2.6,2.1c0.5-1.3,1-2.8,1.3-4.2c2.4-9.7-0.4-20.1-7.3-27.3
		c-1-1.1-2.1-2-3.2-2.9l3.3,0.6l10.4,1.9L150.3,277.7z"/>
	<path class="st2" d="M203.3,233.2l-2.6,2.1l-8.1,6.8l-21.5,18.1v-42.1c0.7,1.3,1.5,2.6,2.4,3.7c5.9,8.1,15.5,12.6,25.6,12
		C200.4,233.7,201.9,233.5,203.3,233.2z"/>
	<path class="st2" d="M218.1,289.6c-1.2,0.3-2.4,0.8-3.5,1.3c-6.5,3.2-10.4,10.1-10,17.3c0,1.3,0.3,2.5,0.6,3.8l-2-2.3l-6.9-8.2
		L180.7,283l23.9,4.2l10.5,1.9L218.1,289.6z"/>
	<path class="st2" d="M158.4,347.2V400c-5.8-9.9-13.5-18.3-22.4-24.9c0,0,0,0,0,0c-9.1-6.8-19.5-11.6-30.5-14.2c0,0,0,0,0,0
		c-10.7-2.5-22-3-33.3-1.1l16.1-13.6l24.3-20.3v0c6-0.8,12-0.5,17.6,0.9c5.9,1.4,11.4,4,16.2,7.6
		C151.1,337.7,155.2,342.1,158.4,347.2z"/>
	<path class="st2" d="M93.5,254.8c0-0.1,0-0.1,0-0.1L93.5,254.8l-31.2-5.5l-20.8-3.7L20.8,242L0,238.3c17-18.4,27.3-41.5,30.1-65.8
		c1.2-10.4,1.1-20.9-0.6-31.5c-0.3-1.7-0.6-3.4-0.9-5.1l-4-19.3l13.6,16.1l13.6,16.2L65.2,165l13.6,16.2l13.5,16.1l20.3,24.2v0
		C116.3,236,107.8,250.7,93.5,254.8z"/>
	<path class="st2" d="M158.4,0v200.4c-6.6,13.3-22.5,19.1-36.1,13.1L102,189.2l-13.6-16.1l-13.6-16.2l-13.5-16.1l-13.6-16.2
		l-13.6-16.1L20.7,92.3c33.4-8,64.5-23.2,91.2-44.1c9.9-7.8,19.3-16.5,27.9-25.9c3.6-3.9,7-7.9,10.3-12L158.4,0z"/>
	<path class="st2" d="M93.6,254.7c0,0,0,0,0,0.1h0L93.6,254.7z"/>
	<path class="st2" d="M227.5,358.4c-21.3-8.7-45.7,0.2-56.4,20.5v-31.4l0.1-0.3c0,0,0,0,0,0c6.5-13.3,22.3-19.2,35.8-13.1h0
		c0,0,0,0,0,0L227.5,358.4z"/>
	<path class="st2" d="M195.5,320.3c-1.2-0.6-2.4-1.1-3.7-1.3c-7.1-1.7-14.5,1.1-18.8,6.9c-0.8,1-1.4,2.1-1.9,3.4v-38l15.6,18.6
		l6.9,8.2L195.5,320.3z"/>
	<path class="st2" d="M158.4,287.3v42.2c-0.7-1.3-1.5-2.6-2.4-3.7c-5.9-8.1-15.6-12.7-25.6-12c-1.4,0.1-2.9,0.3-4.3,0.6l2.6-2.2
		l8.2-6.8L158.4,287.3z"/>
	<path class="st2" d="M148.7,264.5l-23.9-4.2l-10.4-1.8l-2.9-0.5c1.3-0.3,2.4-0.8,3.6-1.4c6.4-3.2,10.4-10.1,9.9-17.2
		c-0.1-1.3-0.3-2.7-0.7-4l2.1,2.4l6.8,8.1L148.7,264.5z"/>
	<path class="st2" d="M104.4,316.1L104.4,316.1l-24.3,20.4L64,350.1l-16.1,13.6l0,0c2.8-11.5,3.8-23.3,3.1-34.8c0,0,0-0.1,0-0.1
		c-0.9-15.8-5.1-31.3-12.1-45.5c-5.1-10.4-11.9-20.1-20.2-28.8v0l20.8,3.7l20.8,3.7l31.2,5.5c4.5,4,8.1,8.8,10.7,14.1v0
		c2.6,5.3,4.2,11.1,4.5,17c0,0,0,0.1,0,0.2C107,304.4,106.3,310.3,104.4,316.1z"/>
	<text transform="matrix(1 0 0 1 -132.5433 488.4378)" class="st1 st6 st7">dossamer</text>
</g>
<g id="Horizontal" class="st0">
	<path class="st2" d="M-175.8-98.1C-175.8-98-175.8-98-175.8-98.1L-175.8-98.1L-175.8-98.1z"/>
	<path class="st2" d="M-123.4-35.6C-123.4-35.6-123.4-35.6-123.4-35.6l-0.1,0.2L-123.4-35.6C-123.5-35.6-123.4-35.6-123.4-35.6z"/>
	<path class="st2" d="M-175.8-98.1C-175.8-98-175.8-98-175.8-98.1L-175.8-98.1L-175.8-98.1z"/>
	<path class="st2" d="M-123.4-35.6C-123.4-35.6-123.4-35.6-123.4-35.6l-0.1,0.2L-123.4-35.6C-123.5-35.6-123.4-35.6-123.4-35.6z"/>
	<path class="st2" d="M-90-82.9l-2.2-0.4l-7.1-1.2l-18.7-3.3l14.5-12.2l5.5-4.6l1.8-1.5c-0.4,0.9-0.7,1.9-0.9,2.8
		c-1.6,6.5,0.2,13.5,4.9,18.4c0,0,0,0,0,0C-91.6-84.1-90.8-83.5-90-82.9z"/>
	<path class="st2" d="M-175.8-98.1C-175.8-98-175.8-98-175.8-98.1L-175.8-98.1L-175.8-98.1z"/>
	<path class="st2" d="M-123.4-35.6C-123.4-35.6-123.4-35.6-123.4-35.6l-0.1,0.2L-123.4-35.6C-123.5-35.6-123.4-35.6-123.4-35.6z"/>
	<path class="st2" d="M-175.8-98.1C-175.8-98-175.8-98-175.8-98.1L-175.8-98.1L-175.8-98.1z"/>
	<path class="st2" d="M-123.4-35.6C-123.4-35.6-123.4-35.6-123.4-35.6l-0.1,0.2L-123.4-35.6C-123.5-35.6-123.4-35.6-123.4-35.6z"/>
	<path class="st2" d="M-175.8-98.1C-175.8-98-175.8-98-175.8-98.1L-175.8-98.1L-175.8-98.1z"/>
	<path class="st2" d="M-123.4-35.6C-123.4-35.6-123.4-35.6-123.4-35.6l-0.1,0.2L-123.4-35.6C-123.5-35.6-123.4-35.6-123.4-35.6z"/>
	<path class="st2" d="M-175.8-98.1C-175.8-98-175.8-98-175.8-98.1L-175.8-98.1L-175.8-98.1z"/>
	<path class="st2" d="M-123.4-35.6C-123.4-35.6-123.4-35.6-123.4-35.6l-0.1,0.2L-123.4-35.6C-123.5-35.6-123.4-35.6-123.4-35.6z"/>
	<path class="st2" d="M-175.8-98.1C-175.8-98-175.8-98-175.8-98.1L-175.8-98.1L-175.8-98.1z"/>
	<path class="st2" d="M-123.4-35.6C-123.4-35.6-123.4-35.6-123.4-35.6l-0.1,0.2L-123.4-35.6C-123.5-35.6-123.4-35.6-123.4-35.6z"/>
	<path class="st2" d="M-132-122.6v25.7l-10.5-12.6l-4.6-5.5l-1.4-1.6c0.8,0.4,1.7,0.7,2.5,0.9c4.7,1.1,9.8-0.7,12.7-4.6
		C-132.8-121-132.4-121.7-132-122.6z"/>
	<path class="st2" d="M-175.8-98.1C-175.8-98-175.8-98-175.8-98.1L-175.8-98.1L-175.8-98.1z"/>
	<path class="st2" d="M-123.4-35.6C-123.4-35.6-123.4-35.6-123.4-35.6l-0.1,0.2L-123.4-35.6C-123.5-35.6-123.4-35.6-123.4-35.6z"/>
	<path class="st2" d="M-137.5-82.5L-152-70.4l-5.5,4.6l-1.7,1.5c0.4-0.9,0.7-1.9,0.9-2.8c1.6-6.6-0.3-13.6-4.9-18.4
		c-0.7-0.7-1.4-1.4-2.2-2l2.2,0.4l7.1,1.3L-137.5-82.5z"/>
	<path class="st2" d="M-101.7-112.6l-1.8,1.5l-5.5,4.6l-14.5,12.2v-28.4c0.5,0.9,1,1.7,1.6,2.5c4,5.5,10.5,8.5,17.3,8.1
		C-103.7-112.2-102.7-112.4-101.7-112.6z"/>
	<path class="st2" d="M-91.8-74.5c-0.8,0.2-1.6,0.5-2.4,0.9c-4.4,2.2-7.1,6.8-6.8,11.7c0,0.9,0.2,1.7,0.4,2.6l-1.3-1.6l-4.6-5.5
		L-117-78.9l16.1,2.8l7.1,1.3L-91.8-74.5z"/>
	<path class="st2" d="M-132-35.6V0c-3.9-6.7-9.1-12.4-15.1-16.8c0,0,0,0,0,0c-6.1-4.6-13.2-7.8-20.6-9.6c0,0,0,0,0,0
		c-7.2-1.7-14.8-2-22.5-0.7l10.9-9.2L-163-50v0c4-0.6,8.1-0.3,11.9,0.6c4,1,7.7,2.7,10.9,5.1C-136.9-42-134.2-39.1-132-35.6z"/>
	<path class="st2" d="M-175.8-98C-175.8-98-175.8-98-175.8-98L-175.8-98l-21-3.7l-14-2.5l-14-2.5l-14-2.5
		c11.5-12.4,18.5-28,20.3-44.4c0.8-7,0.7-14.1-0.4-21.2c-0.2-1.2-0.4-2.3-0.6-3.5l-2.7-13.1l9.2,10.9l9.2,10.9l9.1,10.9l9.2,10.9
		l9.1,10.9l13.7,16.3v0C-160.4-110.7-166.2-100.7-175.8-98z"/>
	<path class="st2" d="M-132-270v135.3c-4.4,9-15.2,12.9-24.3,8.8l-13.7-16.4l-9.2-10.9l-9.2-10.9l-9.1-10.9l-9.2-10.9l-9.2-10.9
		l-9.1-10.9c22.6-5.4,43.6-15.6,61.6-29.8c6.7-5.3,13-11.1,18.9-17.5c2.4-2.6,4.7-5.3,7-8.1L-132-270z"/>
	<path class="st2" d="M-175.8-98.1C-175.8-98-175.8-98-175.8-98.1L-175.8-98.1L-175.8-98.1z"/>
	<path class="st2" d="M-85.4-28.1c-14.4-5.9-30.8,0.1-38.1,13.8v-21.2l0.1-0.2c0,0,0,0,0,0c4.4-9,15.1-12.9,24.2-8.8h0c0,0,0,0,0,0
		L-85.4-28.1z"/>
	<path class="st2" d="M-107-53.8c-0.8-0.4-1.6-0.7-2.5-0.9c-4.8-1.1-9.8,0.7-12.7,4.6c-0.5,0.7-0.9,1.5-1.3,2.3v-25.7l10.5,12.5
		l4.6,5.5L-107-53.8z"/>
	<path class="st2" d="M-132-76v28.5c-0.5-0.9-1-1.7-1.6-2.5c-4-5.5-10.5-8.6-17.3-8.1c-1,0.1-2,0.2-2.9,0.4l1.8-1.5l5.5-4.6L-132-76
		z"/>
	<path class="st2" d="M-138.6-91.4l-16.1-2.8l-7.1-1.2l-2-0.4c0.9-0.2,1.6-0.5,2.4-0.9c4.4-2.2,7-6.8,6.7-11.6
		c-0.1-0.9-0.2-1.8-0.5-2.7l1.4,1.6l4.6,5.5L-138.6-91.4z"/>
	<path class="st2" d="M-168.5-56.6L-168.5-56.6l-16.4,13.8l-10.9,9.2l-10.9,9.2l0,0c1.9-7.8,2.6-15.7,2.1-23.5c0,0,0-0.1,0-0.1
		c-0.6-10.7-3.4-21.1-8.2-30.7c-3.5-7-8-13.6-13.6-19.4v0l14,2.5l14,2.5l21,3.7c3.1,2.7,5.5,6,7.2,9.5v0c1.8,3.6,2.8,7.5,3.1,11.5
		c0,0,0,0.1,0,0.1C-166.7-64.5-167.2-60.5-168.5-56.6z"/>
	<text transform="matrix(1 0 0 1 -72.4517 -96.2893)" class="st1 st6" style="font-size:129.5544px;">dossamer</text>
</g>
</svg>
