<?xml version="1.0" standalone="no"?>
<!DOCTYPE svg PUBLIC "-//W3C//DTD SVG 20010904//EN"
 "http://www.w3.org/TR/2001/REC-SVG-20010904/DTD/svg10.dtd">
<svg version="1.0" xmlns="http://www.w3.org/2000/svg"
 width="1748.000000pt" height="1748.000000pt" viewBox="0 0 1748.000000 1748.000000"
 preserveAspectRatio="xMidYMid meet">
<metadata>
Created by potrace 1.11, written by Peter Selinger 2001-2013
</metadata>
<g transform="translate(0.000000,1748.000000) scale(0.100000,-0.100000)"
fill="#000000" stroke="none">
<path d="M8353 16831 c-385 -479 -567 -685 -878 -996 -945 -947 -2065 -1683
-3325 -2185 -364 -146 -808 -291 -1177 -386 -84 -21 -153 -43 -153 -47 0 -10
430 -529 905 -1092 204 -242 701 -834 1105 -1315 404 -481 867 -1032 1030
-1225 163 -192 493 -586 734 -875 l437 -525 77 -32 c99 -41 210 -64 342 -70
425 -22 831 197 1050 565 l40 68 -2 4171 -3 4171 -182 -227z"/>
<path d="M2980 12164 c40 -185 164 -799 184 -914 53 -304 61 -409 60 -800 0
-316 -3 -390 -22 -549 -55 -446 -162 -874 -317 -1266 -73 -185 -241 -522 -351
-705 -148 -247 -336 -504 -523 -715 -35 -38 -59 -71 -54 -72 4 -2 276 -50 603
-107 327 -58 1198 -212 1935 -342 l1340 -236 83 28 c471 158 797 673 744 1177
-7 61 -16 128 -22 147 -7 24 -277 353 -866 1055 -471 561 -1059 1263 -1307
1560 -618 740 -1441 1720 -1478 1759 -17 18 -17 18 -9 -20z"/>
<path d="M9071 7108 c-1 -478 2 -868 5 -868 3 0 271 224 597 498 326 274 622
523 659 553 36 29 66 55 65 55 -1 1 -29 -2 -62 -8 -33 -5 -132 -8 -220 -5
-130 4 -178 10 -257 31 -324 87 -576 279 -775 592 -9 15 -12 -173 -12 -848z"/>
<path d="M8501 7887 c-41 -75 -173 -208 -255 -256 -137 -81 -327 -122 -473
-103 -44 6 -114 22 -156 35 l-77 25 51 -62 c28 -33 252 -300 498 -593 l446
-532 3 390 c1 215 1 563 0 774 l-3 384 -34 -62z"/>
<path d="M7134 7225 c18 -70 24 -184 15 -260 -33 -261 -182 -470 -423 -591
-48 -24 -95 -44 -104 -44 -50 0 34 -17 364 -74 203 -36 539 -95 747 -131 208
-37 381 -64 384 -62 4 5 -825 1005 -946 1142 -41 45 -44 47 -37 20z"/>
<path d="M10299 6572 c-240 -202 -535 -450 -657 -552 -121 -102 -217 -188
-213 -191 3 -3 141 -30 306 -59 165 -28 541 -94 835 -146 294 -52 536 -94 538
-94 2 0 -38 42 -90 93 -235 232 -360 531 -359 862 0 143 18 269 55 379 14 39
23 72 23 73 -1 0 -198 -164 -438 -365z"/>
<path d="M2740 6455 c0 -3 34 -42 76 -87 254 -275 519 -655 703 -1009 516
-992 682 -2130 470 -3214 -16 -82 -33 -165 -38 -182 -5 -18 -8 -33 -6 -33 3 0
323 269 712 598 390 328 916 772 1170 985 l463 388 20 66 c46 149 80 387 80
559 0 121 -18 274 -46 403 -77 345 -264 682 -516 928 l-73 71 -520 92 c-286
50 -962 170 -1503 266 -1061 188 -992 176 -992 169z"/>
<path d="M6577 5722 c195 -193 313 -422 358 -692 26 -150 17 -336 -23 -490
-17 -63 -34 -124 -38 -135 -9 -23 20 -1 211 160 66 56 344 289 617 518 455
380 495 416 470 421 -15 3 -295 53 -622 110 -327 58 -693 123 -814 145 -120
23 -223 41 -228 41 -5 0 26 -35 69 -78z"/>
<path d="M9492 5262 c32 -41 935 -1112 966 -1147 20 -21 32 -30 28 -20 -29 77
-24 276 10 394 22 78 85 196 142 267 83 103 225 201 341 235 l44 13 -154 27
c-85 15 -413 73 -729 128 -316 56 -594 105 -618 110 -38 8 -41 7 -30 -7z"/>
<path d="M8139 4758 c-217 -182 -513 -430 -657 -550 -145 -121 -262 -221 -260
-224 2 -2 31 1 64 6 90 15 269 12 374 -6 345 -59 631 -249 831 -553 l49 -74 0
867 c0 476 -2 866 -4 866 -2 0 -181 -149 -397 -332z"/>
<path d="M9070 4145 c1 -704 2 -786 15 -756 23 52 97 151 151 201 102 95 232
165 361 194 130 29 330 15 440 -30 37 -16 38 -16 22 2 -48 56 -277 329 -603
719 -203 242 -373 444 -377 450 -5 5 -9 -338 -9 -780z"/>
<path d="M6712 3500 c-40 -5 -80 -14 -90 -21 -144 -113 -1652 -1382 -1647
-1387 2 -2 61 5 132 14 181 26 663 26 848 1 793 -108 1455 -427 2009 -967 219
-214 378 -407 520 -635 l56 -88 0 1095 0 1095 -39 57 c-151 223 -359 420 -597
567 -340 209 -790 311 -1192 269z"/>
<path d="M9928 3234 c-347 -54 -647 -266 -827 -585 l-31 -56 2 -649 3 -649 38
67 c88 158 248 347 400 475 502 420 1179 553 1787 349 57 -20 105 -34 106 -33
5 6 -830 985 -853 1000 -44 27 -179 67 -283 83 -115 17 -226 17 -342 -2z"/>
</g>
</svg>
